<?xml version="1.0" encoding="UTF-8" standalone="no"?>
<!-- Created with Inkscape (http://www.inkscape.org/) -->

<svg
   width="57.045444mm"
   height="57.045444mm"
   viewBox="0 0 57.045444 57.045445"
   version="1.1"
   id="svg1"
   xmlns="http://www.w3.org/2000/svg"
   xmlns:svg="http://www.w3.org/2000/svg">
  <defs
     id="defs1">
    <clipPath
       clipPathUnits="userSpaceOnUse"
       id="clipPath15-7">
      <ellipse
         style="fill:none;fill-opacity:1;stroke:#000000;stroke-width:0.159279;stroke-dasharray:none;stroke-opacity:1"
         id="ellipse15-9"
         cx="-139.98734"
         cy="107.14528"
         rx="1.2082295"
         ry="1.9549565" />
    </clipPath>
    <clipPath
       clipPathUnits="userSpaceOnUse"
       id="clipPath1">
      <ellipse
         style="fill:none;fill-opacity:1;stroke:#000000;stroke-width:0.159279;stroke-dasharray:none;stroke-opacity:1"
         id="ellipse1"
         cx="-139.98734"
         cy="107.14528"
         rx="1.2082295"
         ry="1.9549565" />
    </clipPath>
    <clipPath
       clipPathUnits="userSpaceOnUse"
       id="clipPath2">
      <ellipse
         style="fill:none;fill-opacity:1;stroke:#000000;stroke-width:0.159279;stroke-dasharray:none;stroke-opacity:1"
         id="ellipse2"
         cx="-139.98734"
         cy="107.14528"
         rx="1.2082295"
         ry="1.9549565" />
    </clipPath>
    <clipPath
       clipPathUnits="userSpaceOnUse"
       id="clipPath19-6">
      <path
         style="opacity:1;fill:none;fill-opacity:1;stroke:#000000;stroke-width:0.159279;stroke-dasharray:none;stroke-opacity:1"
         d="m -137.12156,100.90954 -1.46706,0.29341 -3.05639,2.15169 -0.66018,2.66517 0.73353,1.1981 3.96108,-0.0489 7.43312,0.51347 -0.34231,-2.73852 z"
         id="path20-3" />
    </clipPath>
    <clipPath
       clipPathUnits="userSpaceOnUse"
       id="clipPath15-7-7">
      <ellipse
         style="fill:none;fill-opacity:1;stroke:#000000;stroke-width:0.159279;stroke-dasharray:none;stroke-opacity:1"
         id="ellipse15-9-5"
         cx="-139.98734"
         cy="107.14528"
         rx="1.2082295"
         ry="1.9549565" />
    </clipPath>
    <clipPath
       clipPathUnits="userSpaceOnUse"
       id="clipPath1-3">
      <ellipse
         style="fill:none;fill-opacity:1;stroke:#000000;stroke-width:0.159279;stroke-dasharray:none;stroke-opacity:1"
         id="ellipse1-5"
         cx="-139.98734"
         cy="107.14528"
         rx="1.2082295"
         ry="1.9549565" />
    </clipPath>
    <clipPath
       clipPathUnits="userSpaceOnUse"
       id="clipPath2-6">
      <ellipse
         style="fill:none;fill-opacity:1;stroke:#000000;stroke-width:0.159279;stroke-dasharray:none;stroke-opacity:1"
         id="ellipse2-2"
         cx="-139.98734"
         cy="107.14528"
         rx="1.2082295"
         ry="1.9549565" />
    </clipPath>
    <clipPath
       clipPathUnits="userSpaceOnUse"
       id="clipPath19-6-9">
      <path
         style="opacity:1;fill:none;fill-opacity:1;stroke:#000000;stroke-width:0.159279;stroke-dasharray:none;stroke-opacity:1"
         d="m -137.12156,100.90954 -1.46706,0.29341 -3.05639,2.15169 -0.66018,2.66517 0.73353,1.1981 3.96108,-0.0489 7.43312,0.51347 -0.34231,-2.73852 z"
         id="path20-3-1" />
    </clipPath>
  </defs>
  <circle
     style="fill:#ffffff;fill-opacity:1;stroke:#000000;stroke-width:0;stroke-dasharray:none;stroke-opacity:1"
     id="circle2"
     cx="28.522722"
     cy="28.522722"
     r="28.522722" />
  <g
     id="g24"
     transform="matrix(2.4697893,0,0,2.4697893,349.96598,-106.56983)">
    <g
       id="g5"
       transform="matrix(0.66918671,0.18209716,-0.18209716,0.66918671,-20.184643,9.4320701)"
       style="stroke-width:0.228905;stroke-dasharray:none">
      <path
         style="fill:none;fill-opacity:1;stroke:#000000;stroke-width:0.228905;stroke-dasharray:none;stroke-opacity:1"
         d="m -135.31817,110.38905 1.42205,1.16503 c 0,0 0.51159,0.14497 0.67633,0.005 0.16476,-0.13959 0.18209,-0.1557 0.18209,-0.1557"
         id="path4" />
      <path
         style="fill:#ffffff;fill-opacity:1;stroke:#000000;stroke-width:0.259429;stroke-dasharray:none;stroke-opacity:1"
         d="m -140.13604,106.36138 c 0,0 1.15247,1.35693 0.24165,2.58375 -0.91082,1.22682 -0.91082,1.22682 -0.91082,1.22682"
         id="path5"
         clip-path="url(#clipPath15-7-7)"
         transform="matrix(0.88071766,0,0,0.88396344,-9.8191967,15.077245)" />
    </g>
    <path
       style="fill:#ffffff;fill-opacity:1;stroke:#000000;stroke-width:0;stroke-dasharray:none;stroke-opacity:1"
       d="m -130.47343,58.064304 0.53694,1.439 -0.0537,0.37586 -0.37585,0.20403 -0.89669,-0.81614 -0.0376,-0.82689 c 0,0 0.82152,0.0537 0.82689,-0.37586 z"
       id="path6" />
    <path
       style="fill:#ffffff;fill-opacity:1;stroke:#000000;stroke-width:0.15875;stroke-dasharray:none;stroke-opacity:1"
       d="m -122.74839,51.756626 c 0,0 -0.43668,0.539428 -1.66965,0.02569 -1.23298,-0.513739 -6.06212,-2.337511 -6.06212,-2.337511 0,0 -2.07613,-0.409644 -3.07886,0.557699 -1.00273,0.967343 -2.60711,2.59531 -2.60711,2.59531 0,0 -0.58984,1.02633 -0.33031,1.93469 0.25953,0.90836 1.42742,4.41203 1.42742,4.41203 0,0 1.71055,-1.45102 1.76953,-2.19422 0.059,-0.7432 -0.17695,-1.98187 -0.22414,-2.265 -0.0472,-0.28312 1.26226,-1.25047 1.26226,-1.25047 l 3.22055,-0.21234 c 0,0 -2.76047,2.18242 -2.89023,2.40656 -0.12977,0.22414 -1.35664,1.8993 -0.94375,2.53633 0.41289,0.63703 2.09984,0.15336 2.09984,0.15336 0,0 2.2768,-1.10891 2.43015,-1.25047 0.15337,-0.14156 1.36844,1.03812 1.36844,1.03812 0,0 2.87844,1.56899 3.83398,0.3893 0.95555,-1.17969 0.95555,-1.17969 0.95555,-1.17969"
       id="path7" />
    <path
       style="fill:none;fill-opacity:1;stroke:#000000;stroke-width:0.15875;stroke-dasharray:none;stroke-opacity:1"
       d="m -133.18623,59.498604 1.42205,1.16503 c 0,0 0.51159,0.14497 0.67633,0.005 0.16476,-0.13959 0.18209,-0.1557 0.18209,-0.1557"
       id="path8" />
    <path
       style="opacity:0.248691;fill:none;fill-opacity:1;stroke:#000000;stroke-width:0.159279;stroke-dasharray:none;stroke-opacity:1"
       d="m -131.41256,56.214994 0.76758,1.03076 c 0,0 -1.09654,0.74565 -1.44744,0.50441 -0.35089,-0.24124 -0.35089,-0.65793 -0.15352,-0.9211 0.19738,-0.26317 0.83338,-0.61407 0.83338,-0.61407 z"
       id="path9" />
    <path
       style="fill:#e1673e;fill-opacity:1;stroke:#000000;stroke-width:0.159279;stroke-dasharray:none;stroke-opacity:1"
       d="m -136.32509,56.960654 1.00883,-0.30704 0.43861,1.22813 c 0,0 -0.87723,0.48249 -1.44744,-0.92109 z"
       id="path10" />
    <g
       id="g12"
       transform="matrix(0.63610491,0.27629834,-0.27629834,0.63610491,-14.782761,26.135013)"
       style="stroke-width:0.228905;stroke-dasharray:none">
      <path
         style="fill:none;fill-opacity:1;stroke:#000000;stroke-width:0.228905;stroke-dasharray:none;stroke-opacity:1"
         d="m -135.31817,110.38905 1.42205,1.16503 c 0,0 0.51159,0.14497 0.67633,0.005 0.16476,-0.13959 0.18209,-0.1557 0.18209,-0.1557"
         id="path11" />
      <path
         style="fill:#ffffff;fill-opacity:1;stroke:#000000;stroke-width:0.259429;stroke-dasharray:none;stroke-opacity:1"
         d="m -140.13604,106.36138 c 0,0 1.15247,1.35693 0.24165,2.58375 -0.91082,1.22682 -0.91082,1.22682 -0.91082,1.22682"
         id="path12"
         clip-path="url(#clipPath15-7-7)"
         transform="matrix(0.88071766,0,0,0.88396344,-9.8191967,15.077245)" />
    </g>
    <path
       style="fill:#ffffff;fill-opacity:1;stroke:#000000;stroke-width:0.179919;stroke-dasharray:none;stroke-opacity:1"
       d="m -140.13604,106.36138 c 0,0 1.15247,1.35693 0.24165,2.58375 -0.91082,1.22682 -0.91082,1.22682 -0.91082,1.22682"
       id="path13"
       clip-path="url(#clipPath15-7-7)"
       transform="matrix(0.88071766,0,0,0.88396344,-7.6618768,-35.84279)" />
    <path
       style="fill:#ffffff;fill-opacity:1;stroke:#000000;stroke-width:0;stroke-dasharray:none;stroke-opacity:1"
       d="m -132.6844,58.280794 -0.27885,1.25124 0.48619,0.25739 1.25839,0.82225 0.13585,-2.50963 -1.06534,0.0143 z"
       id="path14" />
    <path
       style="fill:#e1673e;fill-opacity:1;stroke:#000000;stroke-width:0.159279;stroke-dasharray:none;stroke-opacity:1"
       d="m -132.8904,60.266614 0.73304,-0.75807 0.97953,0.86093 c 0,0 -0.53283,0.8476 -1.71257,-0.10286 z"
       id="path15" />
    <rect
       style="fill:#003327;fill-opacity:1;stroke:#000000;stroke-width:0.079375;stroke-dasharray:none;stroke-opacity:1"
       id="rect15"
       width="1.5385875"
       height="17.488417"
       x="-89.531151"
       y="101.58583"
       transform="rotate(28.714788)" />
    <path
       style="fill:#ffffff;fill-opacity:1;stroke:#000000;stroke-width:0.15875;stroke-dasharray:none;stroke-opacity:1"
       d="m -131.82533,99.845102 c 0,0 -0.43668,0.539428 -1.66965,0.02569 -1.23298,-0.513739 -6.06212,-2.337511 -6.06212,-2.337511 0,0 -2.07613,-0.409644 -3.07886,0.557699 -1.00273,0.967343 -2.60711,2.59531 -2.60711,2.59531 0,0 -0.58984,1.02633 -0.33031,1.93469 0.25953,0.90836 1.42742,4.41203 1.42742,4.41203 0,0 1.71055,-1.45102 1.76953,-2.19422 0.059,-0.7432 -0.17695,-1.98187 -0.22414,-2.265 -0.0472,-0.28312 1.26226,-1.25047 1.26226,-1.25047 l 3.22055,-0.21234 c 0,0 -2.76047,2.18242 -2.89023,2.40656 -0.12977,0.22414 -1.35664,1.8993 -0.94375,2.53633 0.41289,0.63703 2.09984,0.15336 2.09984,0.15336 0,0 2.2768,-1.10891 2.43015,-1.25047 0.15337,-0.14156 1.36844,1.03812 1.36844,1.03812 0,0 2.87844,1.56899 3.83398,0.3893 0.95555,-1.17969 0.95555,-1.17969 0.95555,-1.17969"
       id="path16"
       clip-path="url(#clipPath19-6-9)"
       transform="translate(9.1574742,-48.081906)" />
    <path
       style="fill:#e1673e;fill-opacity:1;stroke:#000000;stroke-width:0.159279;stroke-dasharray:none;stroke-opacity:1"
       d="m -131.33203,56.221574 0.76758,1.03076 c 0,0 -1.09654,0.74565 -1.44744,0.50441 -0.35089,-0.24124 -0.35089,-0.65793 -0.15352,-0.9211 0.19738,-0.26317 0.83338,-0.61407 0.83338,-0.61407 z"
       id="path17" />
    <path
       style="fill:#e1673e;fill-opacity:1;stroke:#000000;stroke-width:0.15875;stroke-dasharray:none;stroke-opacity:1"
       d="m -129.20129,58.206144 c -0.25374,-0.64513 -0.25374,-0.64513 -0.25374,-0.64513"
       id="path18" />
    <path
       style="fill:#e1673e;fill-opacity:1;stroke:#000000;stroke-width:0.15875;stroke-dasharray:none;stroke-opacity:1"
       d="m -129.67283,58.745554 c -0.33864,-0.8825 -0.33864,-0.8825 -0.33864,-0.8825"
       id="path19" />
    <path
       style="fill:#e1673e;fill-opacity:1;stroke:#000000;stroke-width:0.0529167;stroke-dasharray:none;stroke-opacity:1"
       d="m -135.82304,61.704464 1.21314,0.68136 -1.55473,1.10923 z"
       id="path21" />
    <path
       style="fill:#e1673e;fill-opacity:1;stroke:#000000;stroke-width:0.0529167;stroke-dasharray:none;stroke-opacity:1"
       d="m -127.1673,45.832506 c 1.35492,0.754155 1.30379,0.715806 1.30379,0.715806 0,0 0.14061,-1.009801 -0.0639,-1.17597 -0.20451,-0.166168 -0.42181,-0.242863 -1.23988,0.460164 z"
       id="path22" />
    <path
       style="fill:#e1673e;fill-opacity:1;stroke:#000000;stroke-width:0.140758;stroke-dasharray:none;stroke-opacity:1"
       d="m -132.22686,53.213964 c -0.20192,-0.95711 -0.20192,-0.95711 -0.20192,-0.95711"
       id="path23" />
    <path
       style="fill:#e1673e;fill-opacity:1;stroke:#000000;stroke-width:0.172084;stroke-dasharray:none;stroke-opacity:1"
       d="m -133.53105,54.436994 c -0.88928,-0.32146 -0.88928,-0.32146 -0.88928,-0.32146"
       id="path24" />
  </g>
</svg>
