<?xml version="1.0" encoding="UTF-8" standalone="no"?>
<!-- Created with Inkscape (http://www.inkscape.org/) -->

<svg
   width="129.28406mm"
   height="72.380432mm"
   viewBox="0 0 129.28406 72.380432"
   version="1.1"
   id="svg1"
   xmlns="http://www.w3.org/2000/svg"
   xmlns:svg="http://www.w3.org/2000/svg">
  <defs
     id="defs1">
    <clipPath
       clipPathUnits="userSpaceOnUse"
       id="clipPath15">
      <ellipse
         style="fill:none;fill-opacity:1;stroke:#000000;stroke-width:0.159279;stroke-dasharray:none;stroke-opacity:1"
         id="ellipse15"
         cx="-139.98734"
         cy="107.14528"
         rx="1.2082295"
         ry="1.9549565" />
    </clipPath>
    <clipPath
       clipPathUnits="userSpaceOnUse"
       id="clipPath1">
      <ellipse
         style="fill:none;fill-opacity:1;stroke:#000000;stroke-width:0.159279;stroke-dasharray:none;stroke-opacity:1"
         id="ellipse1"
         cx="-139.98734"
         cy="107.14528"
         rx="1.2082295"
         ry="1.9549565" />
    </clipPath>
    <clipPath
       clipPathUnits="userSpaceOnUse"
       id="clipPath2">
      <ellipse
         style="fill:none;fill-opacity:1;stroke:#000000;stroke-width:0.159279;stroke-dasharray:none;stroke-opacity:1"
         id="ellipse2"
         cx="-139.98734"
         cy="107.14528"
         rx="1.2082295"
         ry="1.9549565" />
    </clipPath>
    <clipPath
       clipPathUnits="userSpaceOnUse"
       id="clipPath19">
      <path
         style="opacity:1;fill:none;fill-opacity:1;stroke:#000000;stroke-width:0.159279;stroke-dasharray:none;stroke-opacity:1"
         d="m -137.12156,100.90954 -1.46706,0.29341 -3.05639,2.15169 -0.66018,2.66517 0.73353,1.1981 3.96108,-0.0489 7.43312,0.51347 -0.34231,-2.73852 z"
         id="path20" />
    </clipPath>
  </defs>
  <g
     id="layer1"
     transform="translate(-20.372917,-138.37707)">
    <g
       id="g75"
       transform="matrix(1.7847174,0,0,1.7847174,407.97156,-288.38895)">
      <circle
         style="fill:#ffffff;fill-opacity:1;stroke:#000000;stroke-width:0;stroke-dasharray:none;stroke-opacity:1"
         id="circle53"
         cx="-190.2514"
         cy="253.8577"
         r="14.735231" />
      <path
         d="m -159.31009,279.51321 c -0.24514,-0.24515 0.10994,-8.88542 0.38735,-9.42559 0.4285,-0.83435 1.01293,-0.55087 1.01293,0.49133 0,0.80513 0.0724,0.92454 0.46302,0.76373 1.05408,-0.43395 1.36602,-0.41821 1.87901,0.0948 0.79499,0.79499 0.97905,2.2262 0.46082,3.58316 -0.47992,1.25667 -1.25436,1.76805 -2.35802,1.55707 -0.68514,-0.13097 -0.70941,-0.0946 -0.70941,1.06422 0,0.6599 -0.0723,1.38816 -0.1606,1.61834 -0.16265,0.42386 -0.67205,0.55601 -0.9751,0.25296 z m 2.69995,-3.90747 c 0.48024,-0.57866 0.68346,-2.9909 0.29173,-3.4629 -0.48191,-0.58067 -0.73286,-0.50058 -1.18773,0.37903 -0.46548,0.90014 -0.51312,1.8075 -0.14564,2.77404 0.29002,0.76281 0.59132,0.85243 1.04164,0.30983 z m -24.14379,3.34778 c -0.0974,-0.1576 -0.2536,-1.36433 -0.3471,-2.68161 l -0.17001,-2.39505 -3.86366,0.12945 c -4.52327,0.15155 -4.35688,-0.16372 0.43308,-0.82058 1.71138,-0.23469 3.19396,-0.50688 3.29461,-0.60486 0.10066,-0.098 0.30861,-1.18382 0.46212,-2.41298 0.31457,-2.51875 0.582,-3.0025 1.27499,-2.30626 0.36837,0.37009 0.44936,0.86012 0.40264,2.43604 l -0.0585,1.97276 h 0.75236 c 1.25407,0 5.77668,-1.46686 6.87999,-2.23146 3.8854,-2.69257 0.172,-5.56632 -7.11463,-5.5059 -2.33597,0.0194 -3.32707,0.17485 -6.18189,0.9698 -4.0023,1.11449 -4.42023,1.16497 -3.77904,0.45646 0.65328,-0.72186 2.73011,-1.78204 4.48049,-2.28718 5.64619,-1.62944 13.68098,-0.2967 15.13239,2.51003 0.4851,0.93808 0.49978,2.29965 0.0339,3.13987 -0.81266,1.4655 -3.82628,2.87643 -7.90286,3.70001 l -2.4453,0.49401 -0.31807,2.22632 c -0.35812,2.50664 -0.69938,3.64168 -0.96547,3.21113 z m 27.27953,-1.58986 c -0.35599,-0.82493 -0.36193,-7.39476 -0.008,-9.32655 0.1711,-0.93502 0.3299,-1.19062 0.73972,-1.19062 0.49569,0 0.51529,0.14584 0.39121,2.9104 -0.21982,4.89766 -0.16677,6.822 0.1914,6.9425 0.35962,0.121 0.71883,-0.59023 1.93688,-3.83489 0.88304,-2.35225 1.45505,-2.93474 2.39037,-2.43417 0.63336,0.33897 1.3646,1.89442 1.15157,2.44957 -0.13925,0.36287 -0.80996,0.77103 -1.77528,1.08033 -0.25796,0.0827 -0.53893,0.33247 -0.62438,0.55515 -0.25212,0.65701 0.14607,2.18818 0.61593,2.36849 0.56256,0.21587 1.95573,-1.12174 2.77312,-2.66255 0.64916,-1.22367 1.17337,-1.56485 0.86323,-0.56183 -0.84796,2.74246 -2.95211,4.55144 -4.48284,3.85399 -0.36323,-0.1655 -0.66223,-0.37109 -0.66446,-0.45687 -0.002,-0.0858 -0.10945,-0.32243 -0.23827,-0.52588 -0.18388,-0.29041 -0.41634,-0.16248 -1.08169,0.59531 -1.01795,1.15938 -1.74602,1.23881 -2.17808,0.23762 z m 5.60821,-4.68364 c 0.36998,-0.44581 0.27921,-1.24638 -0.15782,-1.39188 -0.32257,-0.10739 -0.95018,1.36306 -0.69197,1.62126 0.25034,0.25034 0.50977,0.18031 0.84979,-0.22938 z m -20.5671,4.85244 c -1.55317,-0.57455 -1.49721,-5.17165 0.0822,-6.75103 0.79162,-0.79162 1.04618,-0.78642 1.87081,0.0382 0.49207,0.49208 0.64431,0.88915 0.58328,1.52135 -0.0693,0.7178 -0.26547,0.94041 -1.21892,1.38309 -1.11118,0.51592 -1.13461,0.55339 -1.05833,1.69269 0.16964,2.53382 1.78189,1.8127 3.39953,-1.52051 1.14834,-2.36623 1.46129,-2.68415 2.64218,-2.68415 0.73338,0 1.08775,0.15392 1.3795,0.59919 0.56794,0.86679 0.78654,2.1216 0.49834,2.86057 -0.68282,1.7508 -2.25329,2.32125 -3.56023,1.29321 l -0.68485,-0.5387 -0.87219,0.94058 c -0.97131,1.04747 -2.15852,1.49947 -3.06129,1.16551 z m 6.7664,-2.13995 c 0.43065,-0.43065 0.40267,-2.63987 -0.0411,-3.24679 -0.66656,-0.91157 -1.22889,-0.32338 -1.22889,1.28539 0,2.14643 0.42641,2.80499 1.27,1.9614 z m -5.28814,-3.32268 c 0.0995,-1.02929 -0.38384,-1.14454 -0.75091,-0.17905 -0.36849,0.9692 -0.32198,1.22432 0.20498,1.12449 0.30495,-0.0578 0.49133,-0.38054 0.54593,-0.94544 z m -48.57502,5.16154 c -0.22853,-0.27948 -0.52904,-3.45827 -0.57529,-6.08542 -0.01,-0.54694 -0.1442,-0.7276 -0.54198,-0.7276 -0.29104,0 -0.52916,-0.11907 -0.52916,-0.26459 0,-0.14552 0.24432,-0.26458 0.54293,-0.26458 0.36538,0 0.63342,-0.25958 0.81963,-0.79375 0.31846,-0.91353 1.00093,-1.05109 1.21192,-0.24428 0.079,0.3022 0.45483,0.67711 0.83512,0.83312 l 0.69144,0.28366 -0.70833,0.26951 c -0.8813,0.33531 -1.00333,0.78435 -1.00785,3.70869 -0.003,1.75197 0.0792,2.3102 0.32712,2.22952 0.54717,-0.17807 1.55467,-2.24395 1.74573,-3.57965 0.15864,-1.10903 0.25402,-1.25161 0.83723,-1.25161 0.74049,0 0.75269,0.0831 0.45621,3.10885 -0.1122,1.1451 -0.0788,1.78594 0.0931,1.78594 0.26458,0 0.49928,-0.49567 1.41641,-2.99136 0.3816,-1.03839 0.5714,-1.25672 1.03507,-1.19062 0.51887,0.074 0.56778,0.24049 0.56778,1.93302 0,1.01865 0.11906,1.91162 0.26458,1.98438 0.46466,0.23233 1.21361,-1.75905 1.37197,-3.64791 0.14718,-1.75559 0.12821,-1.8361 -0.47705,-2.02417 l -0.63034,-0.19587 0.66146,-0.18573 c 0.39421,-0.11068 0.69444,-0.41283 0.74308,-0.74782 0.1436,-0.98897 1.37359,-1.09028 1.37359,-0.11313 0,0.26135 0.31643,0.58228 0.7276,0.73796 l 0.72761,0.27548 -0.70261,0.19488 c -0.87309,0.24216 -1.00901,0.73239 -1.01357,3.65579 -0.003,1.73111 0.0836,2.3151 0.34212,2.3151 0.19015,0 0.87476,-1.10133 1.52135,-2.4474 l 1.17562,-2.44739 1.11928,-0.0811 c 1.01998,-0.0739 1.16658,-0.003 1.65265,0.79375 0.29336,0.48117 0.53383,1.20819 0.53438,1.6156 0.003,2.24237 -2.34963,3.65552 -3.75164,2.2535 -0.556,-0.55599 -0.58821,-0.55911 -0.8599,-0.0832 -0.4839,0.84762 -1.55268,1.74246 -1.98523,1.66214 -0.22754,-0.0423 -0.60505,-0.45945 -0.83891,-0.9271 l -0.42521,-0.85028 -0.6131,0.65262 c -0.3372,0.35893 -0.81202,0.65261 -1.05514,0.65261 -0.49334,0 -1.3178,-0.79931 -1.3178,-1.2776 0,-0.17045 -0.11906,-0.3099 -0.26458,-0.3099 -0.14553,0 -0.26459,0.17196 -0.26459,0.38212 0,0.21017 -0.28222,0.71022 -0.62716,1.11124 -0.6136,0.71335 -0.6422,0.71926 -1.32291,0.27324 -0.38267,-0.25074 -0.69577,-0.64432 -0.69577,-0.87464 0,-0.28935 -0.2372,-0.16483 -0.76761,0.40298 -0.81772,0.87538 -1.38072,1.02732 -1.81928,0.491 z m 15.12631,-1.93987 c 0.25448,-0.66317 0.18682,-2.47768 -0.1133,-3.03846 -0.33123,-0.61892 -0.93263,-0.66756 -1.15301,-0.0933 -0.27925,0.72773 -0.17372,2.90211 0.15691,3.23273 0.44019,0.4402 0.91842,0.39665 1.1094,-0.10101 z m 3.59109,1.45987 c -0.16076,-0.30038 -0.27386,-1.16358 -0.25133,-1.91823 0.0554,-1.85747 0.0423,-1.92122 -0.32166,-1.55729 -0.55706,0.55705 -0.77505,0.3448 -0.69066,-0.67249 0.0574,-0.69187 0.22154,-1.01641 0.54513,-1.07773 0.32031,-0.0607 0.46303,0.0813 0.46303,0.46082 0,0.41645 0.16815,0.54856 0.6982,0.54856 0.69118,0 0.69679,0.0156 0.55751,1.55161 -0.24043,2.6515 0.40685,2.85538 1.38829,0.43728 0.32585,-0.80285 0.69996,-1.45972 0.83135,-1.45972 0.52848,0 -0.62891,2.93659 -1.50117,3.80886 -0.58651,0.5865 -1.36934,0.53109 -1.71869,-0.12167 z"
         style="fill:#000000"
         id="path54" />
      <g
         id="g74"
         transform="matrix(1.2759272,0,0,1.2759272,-24.189381,184.06702)">
        <g
           id="g56"
           transform="matrix(0.66918671,0.18209716,-0.18209716,0.66918671,-20.184643,9.4320701)"
           style="stroke-width:0.228905;stroke-dasharray:none">
          <path
             style="fill:none;fill-opacity:1;stroke:#000000;stroke-width:0.228905;stroke-dasharray:none;stroke-opacity:1"
             d="m -135.31817,110.38905 1.42205,1.16503 c 0,0 0.51159,0.14497 0.67633,0.005 0.16476,-0.13959 0.18209,-0.1557 0.18209,-0.1557"
             id="path55" />
          <path
             style="fill:#ffffff;fill-opacity:1;stroke:#000000;stroke-width:0.259429;stroke-dasharray:none;stroke-opacity:1"
             d="m -140.13604,106.36138 c 0,0 1.15247,1.35693 0.24165,2.58375 -0.91082,1.22682 -0.91082,1.22682 -0.91082,1.22682"
             id="path56"
             clip-path="url(#clipPath15)"
             transform="matrix(0.88071766,0,0,0.88396344,-9.8191967,15.077245)" />
        </g>
        <path
           style="fill:#ffffff;fill-opacity:1;stroke:#000000;stroke-width:0;stroke-dasharray:none;stroke-opacity:1"
           d="m -130.47343,58.064304 0.53694,1.439 -0.0537,0.37586 -0.37585,0.20403 -0.89669,-0.81614 -0.0376,-0.82689 c 0,0 0.82152,0.0537 0.82689,-0.37586 z"
           id="path57" />
        <path
           style="fill:#ffffff;fill-opacity:1;stroke:#000000;stroke-width:0.15875;stroke-dasharray:none;stroke-opacity:1"
           d="m -122.74839,51.756626 c 0,0 -0.43668,0.539428 -1.66965,0.02569 -1.23298,-0.513739 -6.06212,-2.337511 -6.06212,-2.337511 0,0 -2.07613,-0.409644 -3.07886,0.557699 -1.00273,0.967343 -2.60711,2.59531 -2.60711,2.59531 0,0 -0.58984,1.02633 -0.33031,1.93469 0.25953,0.90836 1.42742,4.41203 1.42742,4.41203 0,0 1.71055,-1.45102 1.76953,-2.19422 0.059,-0.7432 -0.17695,-1.98187 -0.22414,-2.265 -0.0472,-0.28312 1.26226,-1.25047 1.26226,-1.25047 l 3.22055,-0.21234 c 0,0 -2.76047,2.18242 -2.89023,2.40656 -0.12977,0.22414 -1.35664,1.8993 -0.94375,2.53633 0.41289,0.63703 2.09984,0.15336 2.09984,0.15336 0,0 2.2768,-1.10891 2.43015,-1.25047 0.15337,-0.14156 1.36844,1.03812 1.36844,1.03812 0,0 2.87844,1.56899 3.83398,0.3893 0.95555,-1.17969 0.95555,-1.17969 0.95555,-1.17969"
           id="path58" />
        <path
           style="fill:none;fill-opacity:1;stroke:#000000;stroke-width:0.15875;stroke-dasharray:none;stroke-opacity:1"
           d="m -133.18623,59.498604 1.42205,1.16503 c 0,0 0.51159,0.14497 0.67633,0.005 0.16476,-0.13959 0.18209,-0.1557 0.18209,-0.1557"
           id="path59" />
        <path
           style="opacity:0.248691;fill:none;fill-opacity:1;stroke:#000000;stroke-width:0.159279;stroke-dasharray:none;stroke-opacity:1"
           d="m -131.41256,56.214994 0.76758,1.03076 c 0,0 -1.09654,0.74565 -1.44744,0.50441 -0.35089,-0.24124 -0.35089,-0.65793 -0.15352,-0.9211 0.19738,-0.26317 0.83338,-0.61407 0.83338,-0.61407 z"
           id="path60" />
        <path
           style="fill:#e1673e;fill-opacity:1;stroke:#000000;stroke-width:0.159279;stroke-dasharray:none;stroke-opacity:1"
           d="m -136.32509,56.960654 1.00883,-0.30704 0.43861,1.22813 c 0,0 -0.87723,0.48249 -1.44744,-0.92109 z"
           id="path61" />
        <g
           id="g63"
           transform="matrix(0.63610491,0.27629834,-0.27629834,0.63610491,-14.782761,26.135013)"
           style="stroke-width:0.228905;stroke-dasharray:none">
          <path
             style="fill:none;fill-opacity:1;stroke:#000000;stroke-width:0.228905;stroke-dasharray:none;stroke-opacity:1"
             d="m -135.31817,110.38905 1.42205,1.16503 c 0,0 0.51159,0.14497 0.67633,0.005 0.16476,-0.13959 0.18209,-0.1557 0.18209,-0.1557"
             id="path62" />
          <path
             style="fill:#ffffff;fill-opacity:1;stroke:#000000;stroke-width:0.259429;stroke-dasharray:none;stroke-opacity:1"
             d="m -140.13604,106.36138 c 0,0 1.15247,1.35693 0.24165,2.58375 -0.91082,1.22682 -0.91082,1.22682 -0.91082,1.22682"
             id="path63"
             clip-path="url(#clipPath15)"
             transform="matrix(0.88071766,0,0,0.88396344,-9.8191967,15.077245)" />
        </g>
        <path
           style="fill:#ffffff;fill-opacity:1;stroke:#000000;stroke-width:0.179919;stroke-dasharray:none;stroke-opacity:1"
           d="m -140.13604,106.36138 c 0,0 1.15247,1.35693 0.24165,2.58375 -0.91082,1.22682 -0.91082,1.22682 -0.91082,1.22682"
           id="path64"
           clip-path="url(#clipPath15)"
           transform="matrix(0.88071766,0,0,0.88396344,-7.6618768,-35.84279)" />
        <path
           style="fill:#ffffff;fill-opacity:1;stroke:#000000;stroke-width:0;stroke-dasharray:none;stroke-opacity:1"
           d="m -132.6844,58.280794 -0.27885,1.25124 0.48619,0.25739 1.25839,0.82225 0.13585,-2.50963 -1.06534,0.0143 z"
           id="path65" />
        <path
           style="fill:#e1673e;fill-opacity:1;stroke:#000000;stroke-width:0.159279;stroke-dasharray:none;stroke-opacity:1"
           d="m -132.8904,60.266614 0.73304,-0.75807 0.97953,0.86093 c 0,0 -0.53283,0.8476 -1.71257,-0.10286 z"
           id="path66" />
        <rect
           style="fill:#003327;fill-opacity:1;stroke:#000000;stroke-width:0.079375;stroke-dasharray:none;stroke-opacity:1"
           id="rect66"
           width="1.5385875"
           height="17.488417"
           x="-89.531151"
           y="101.58583"
           transform="rotate(28.714788)" />
        <path
           style="fill:#ffffff;fill-opacity:1;stroke:#000000;stroke-width:0.15875;stroke-dasharray:none;stroke-opacity:1"
           d="m -131.82533,99.845102 c 0,0 -0.43668,0.539428 -1.66965,0.02569 -1.23298,-0.513739 -6.06212,-2.337511 -6.06212,-2.337511 0,0 -2.07613,-0.409644 -3.07886,0.557699 -1.00273,0.967343 -2.60711,2.59531 -2.60711,2.59531 0,0 -0.58984,1.02633 -0.33031,1.93469 0.25953,0.90836 1.42742,4.41203 1.42742,4.41203 0,0 1.71055,-1.45102 1.76953,-2.19422 0.059,-0.7432 -0.17695,-1.98187 -0.22414,-2.265 -0.0472,-0.28312 1.26226,-1.25047 1.26226,-1.25047 l 3.22055,-0.21234 c 0,0 -2.76047,2.18242 -2.89023,2.40656 -0.12977,0.22414 -1.35664,1.8993 -0.94375,2.53633 0.41289,0.63703 2.09984,0.15336 2.09984,0.15336 0,0 2.2768,-1.10891 2.43015,-1.25047 0.15337,-0.14156 1.36844,1.03812 1.36844,1.03812 0,0 2.87844,1.56899 3.83398,0.3893 0.95555,-1.17969 0.95555,-1.17969 0.95555,-1.17969"
           id="path67"
           clip-path="url(#clipPath19)"
           transform="translate(9.1574742,-48.081906)" />
        <path
           style="fill:#e1673e;fill-opacity:1;stroke:#000000;stroke-width:0.159279;stroke-dasharray:none;stroke-opacity:1"
           d="m -131.33203,56.221574 0.76758,1.03076 c 0,0 -1.09654,0.74565 -1.44744,0.50441 -0.35089,-0.24124 -0.35089,-0.65793 -0.15352,-0.9211 0.19738,-0.26317 0.83338,-0.61407 0.83338,-0.61407 z"
           id="path68" />
        <path
           style="fill:#e1673e;fill-opacity:1;stroke:#000000;stroke-width:0.15875;stroke-dasharray:none;stroke-opacity:1"
           d="m -129.20129,58.206144 c -0.25374,-0.64513 -0.25374,-0.64513 -0.25374,-0.64513"
           id="path69" />
        <path
           style="fill:#e1673e;fill-opacity:1;stroke:#000000;stroke-width:0.15875;stroke-dasharray:none;stroke-opacity:1"
           d="m -129.67283,58.745554 c -0.33864,-0.8825 -0.33864,-0.8825 -0.33864,-0.8825"
           id="path70" />
        <path
           style="fill:#e1673e;fill-opacity:1;stroke:#000000;stroke-width:0.0529167;stroke-dasharray:none;stroke-opacity:1"
           d="m -135.82304,61.704464 1.21314,0.68136 -1.55473,1.10923 z"
           id="path71" />
        <path
           style="fill:#e1673e;fill-opacity:1;stroke:#000000;stroke-width:0.0529167;stroke-dasharray:none;stroke-opacity:1"
           d="m -127.1673,45.832506 c 1.35492,0.754155 1.30379,0.715806 1.30379,0.715806 0,0 0.14061,-1.009801 -0.0639,-1.17597 -0.20451,-0.166168 -0.42181,-0.242863 -1.23988,0.460164 z"
           id="path72" />
        <path
           style="fill:#e1673e;fill-opacity:1;stroke:#000000;stroke-width:0.140758;stroke-dasharray:none;stroke-opacity:1"
           d="m -132.22686,53.213964 c -0.20192,-0.95711 -0.20192,-0.95711 -0.20192,-0.95711"
           id="path73" />
        <path
           style="fill:#e1673e;fill-opacity:1;stroke:#000000;stroke-width:0.172084;stroke-dasharray:none;stroke-opacity:1"
           d="m -133.53105,54.436994 c -0.88928,-0.32146 -0.88928,-0.32146 -0.88928,-0.32146"
           id="path74" />
      </g>
    </g>
  </g>
</svg>
