<?xml version="1.0" encoding="UTF-8" standalone="no"?>
<!-- Created with Inkscape (http://www.inkscape.org/) -->

<svg
   width="143.35231mm"
   height="112.41001mm"
   viewBox="0 0 143.35231 112.41001"
   version="1.1"
   id="svg1"
   xmlns="http://www.w3.org/2000/svg"
   xmlns:svg="http://www.w3.org/2000/svg">
  <defs
     id="defs1"><clipPath
   clipPathUnits="userSpaceOnUse"
   id="clipPath15-7">
  <ellipse
     style="fill:none;fill-opacity:1;stroke:#000000;stroke-width:0.159279;stroke-dasharray:none;stroke-opacity:1"
     id="ellipse15-9"
     cx="-139.98734"
     cy="107.14528"
     rx="1.2082295"
     ry="1.9549565" />
</clipPath>
<clipPath
   clipPathUnits="userSpaceOnUse"
   id="clipPath1">
  <ellipse
     style="fill:none;fill-opacity:1;stroke:#000000;stroke-width:0.159279;stroke-dasharray:none;stroke-opacity:1"
     id="ellipse1"
     cx="-139.98734"
     cy="107.14528"
     rx="1.2082295"
     ry="1.9549565" />
</clipPath>
<clipPath
   clipPathUnits="userSpaceOnUse"
   id="clipPath2">
  <ellipse
     style="fill:none;fill-opacity:1;stroke:#000000;stroke-width:0.159279;stroke-dasharray:none;stroke-opacity:1"
     id="ellipse2"
     cx="-139.98734"
     cy="107.14528"
     rx="1.2082295"
     ry="1.9549565" />
</clipPath>
<clipPath
   clipPathUnits="userSpaceOnUse"
   id="clipPath19-6">
  <path
     style="opacity:1;fill:none;fill-opacity:1;stroke:#000000;stroke-width:0.159279;stroke-dasharray:none;stroke-opacity:1"
     d="m -137.12156,100.90954 -1.46706,0.29341 -3.05639,2.15169 -0.66018,2.66517 0.73353,1.1981 3.96108,-0.0489 7.43312,0.51347 -0.34231,-2.73852 z"
     id="path20-3" />
</clipPath>

	
	
	
</defs>
  <g
     id="layer1"
     transform="translate(115.8875,-14.81666)">
    <circle
       style="fill:#ffffff;fill-opacity:1;stroke:#000000;stroke-width:0;stroke-dasharray:none;stroke-opacity:1"
       id="circle2"
       cx="-63.769119"
       cy="43.339382"
       r="28.522722" />
    <path
       d="m -3.8765736,93.000299 c -0.4745131,-0.474532 0.2128088,-17.199347 0.7497864,-18.244945 0.8294397,-1.615036 1.9607104,-1.066309 1.9607104,0.951059 0,1.558476 0.1401433,1.789616 0.89625944,1.478339 2.04036366,-0.83999 2.64418036,-0.809522 3.63716586,0.183502 1.5388478,1.538848 1.8951294,4.309215 0.892001,6.935858 -0.9289726,2.432514 -2.4280421,3.422383 -4.56437692,3.013993 -1.32621318,-0.253516 -1.37319218,-0.183116 -1.37319218,2.059991 0,1.277357 -0.1399498,2.687037 -0.3108705,3.132592 -0.3148387,0.820458 -1.3008751,1.076259 -1.8874835,0.48965 z M 1.349671,85.43668 c 0.9295919,-1.120102 1.3229612,-5.789431 0.5646965,-6.703073 -0.93282452,-1.123993 -1.41858392,-0.968964 -2.29906759,0.733681 -0.90102121,1.742385 -0.99323711,3.498746 -0.28191272,5.36966 0.56138649,1.476557 1.14460748,1.650033 2.01628381,0.599732 z m -46.7347,6.480238 c -0.188535,-0.305064 -0.490889,-2.64091 -0.671875,-5.190745 l -0.329085,-4.636055 -7.478817,0.250574 c -8.755613,0.293353 -8.433535,-0.31691 0.838305,-1.588382 3.312687,-0.454285 6.182491,-0.981158 6.377317,-1.170816 0.194846,-0.189697 0.597371,-2.291499 0.894517,-4.670762 0.608908,-4.875499 1.126567,-5.811886 2.467976,-4.464186 0.713047,0.716376 0.869818,1.664918 0.779383,4.715398 l -0.113238,3.818636 h 1.45633 c 2.427481,0 11.181815,-2.839374 13.317473,-4.319396 7.520899,-5.21196 0.332937,-10.774626 -13.771661,-10.657672 -4.521696,0.03755 -6.44015,0.338454 -11.966174,1.877224 -7.74718,2.157299 -8.556159,2.255012 -7.315019,0.883562 1.264542,-1.397292 5.284624,-3.449463 8.672803,-4.427253 10.929229,-3.154078 26.482027,-0.574317 29.291495,4.85862 0.939,1.815824 0.967416,4.451391 0.06562,6.077789 -1.573051,2.836742 -7.406461,5.567854 -15.297424,7.162043 l -4.733323,0.956246 -0.615682,4.309448 c -0.693207,4.852058 -1.353778,7.049134 -1.868843,6.215727 z M 7.4194665,88.839454 C 6.730383,87.242652 6.7188851,74.52555 7.403981,70.786219 c 0.3311952,-1.809901 0.6385815,-2.304662 1.4318627,-2.304662 0.9594982,0 0.9974376,0.2823 0.7572581,5.633609 -0.4255016,9.480313 -0.3228136,13.205223 0.3704896,13.438473 0.6961096,0.234217 1.3914266,-1.142498 3.7491836,-7.423128 1.709285,-4.553208 2.816514,-5.680723 4.626996,-4.711779 1.225984,0.656138 2.641432,3.666995 2.229074,4.741589 -0.269544,0.702401 -1.567825,1.492468 -3.436378,2.091175 -0.499328,0.160081 -1.043197,0.643556 -1.208601,1.074594 -0.488024,1.271762 0.282745,4.23562 1.192245,4.584643 1.088937,0.417856 3.785671,-2.171332 5.367878,-5.15385 1.256567,-2.368636 2.271271,-3.029052 1.670939,-1.087524 -1.641381,5.30853 -5.714346,8.81014 -8.677353,7.460099 -0.703098,-0.320355 -1.281867,-0.718312 -1.286183,-0.884355 -0.0039,-0.166082 -0.211861,-0.624122 -0.461215,-1.017936 -0.355933,-0.562142 -0.805902,-0.31451 -2.093808,1.15233 -1.9704274,2.244191 -3.3797394,2.397943 -4.2160702,0.459957 z M 18.275178,79.773416 c 0.716163,-0.862946 0.540461,-2.412595 -0.30549,-2.694237 -0.624393,-0.207872 -1.839246,2.638451 -1.339434,3.138244 0.484579,0.484579 0.986753,0.349023 1.644924,-0.444007 z m -39.811366,9.392781 c -3.006443,-1.112146 -2.898122,-10.01067 0.159113,-13.067847 1.532325,-1.532325 2.025072,-1.522259 3.621294,0.07394 0.952491,0.95251 1.247179,1.721112 1.129044,2.94485 -0.134143,1.389432 -0.513865,1.820335 -2.359441,2.677222 -2.150891,0.998657 -2.196244,1.071187 -2.048591,3.27651 0.32837,4.90467 3.449173,3.508811 6.580409,-2.943224 2.222822,-4.580269 2.828593,-5.195661 5.1144207,-5.195661 1.4195905,0 2.1055381,0.29794 2.6702733,1.159841 1.0993513,1.67783 1.5224913,4.106743 0.9646278,5.537154 -1.3217224,3.388992 -4.3616528,4.493202 -6.8914728,2.503244 l -1.325652,-1.042752 -1.688283,1.820664 c -1.880147,2.027568 -4.178208,2.902497 -5.925684,2.256056 z m 13.097599,-4.142262 c 0.8336015,-0.833602 0.7794411,-5.109949 -0.079556,-6.284753 -1.2902482,-1.76451 -2.378741,-0.625961 -2.378741,2.488106 0,4.154806 0.825394,5.429569 2.4583169,3.796647 z m -10.236157,-6.431652 c 0.1926,-1.992378 -0.742993,-2.215466 -1.453523,-0.346584 -0.71328,1.876063 -0.623251,2.369894 0.396776,2.176655 0.590286,-0.111883 0.951058,-0.736605 1.056747,-1.830071 z m -94.025794,9.9911 c -0.44236,-0.540985 -1.02405,-6.694111 -1.11358,-11.779438 -0.0194,-1.058702 -0.27912,-1.408402 -1.0491,-1.408402 -0.56336,0 -1.02428,-0.230482 -1.02428,-0.512163 0,-0.28168 0.47292,-0.512142 1.05094,-0.512142 0.70726,0 1.2261,-0.502465 1.58654,-1.536448 0.61644,-1.768303 1.93748,-2.034576 2.34589,-0.472848 0.15292,0.584963 0.88041,1.310669 1.61653,1.612655 l 1.33841,0.549076 -1.37111,0.521685 c -1.70591,0.649054 -1.94212,1.518253 -1.95087,7.178845 -0.006,3.391257 0.1533,4.471812 0.6332,4.315642 1.05914,-0.344687 3.00934,-4.343574 3.37918,-6.929065 0.30707,-2.146729 0.4917,-2.422718 1.62061,-2.422718 1.43335,0 1.45697,0.160855 0.88307,6.017745 -0.21718,2.216549 -0.15253,3.457011 0.18022,3.457011 0.51214,0 0.96644,-0.959459 2.74172,-5.790321 0.73865,-2.009993 1.10604,-2.432611 2.003562,-2.304662 1.004367,0.14324 1.099042,0.465512 1.099042,3.741712 0,1.971782 0.230462,3.700288 0.512142,3.841129 0.899434,0.449717 2.349163,-3.404962 2.655698,-7.061194 0.284894,-3.398264 0.248174,-3.554106 -0.923417,-3.918149 l -1.220138,-0.379143 1.280376,-0.359514 c 0.763066,-0.214241 1.344215,-0.799107 1.438367,-1.447541 0.277964,-1.914332 2.658833,-2.110436 2.658833,-0.218984 0,0.50589 0.612508,1.127109 1.408403,1.428456 l 1.408421,0.533241 -1.360029,0.377226 c -1.690025,0.468745 -1.953123,1.417674 -1.96195,7.076447 -0.0058,3.350878 0.161823,4.481297 0.662236,4.481297 0.36807,0 1.693257,-2.131824 2.94485,-4.737388 l 2.275626,-4.737368 2.16657,-0.156984 c 1.974357,-0.143047 2.258128,-0.0058 3.199005,1.536447 0.567852,0.931392 1.033325,2.338672 1.03439,3.127288 0.0058,4.340515 -4.548137,7.075924 -7.261982,4.36206 -1.076239,-1.07622 -1.138588,-1.08226 -1.664493,-0.161049 -0.936677,1.640723 -3.005495,3.372848 -3.842774,3.217374 -0.440445,-0.08188 -1.171184,-0.889349 -1.623863,-1.794571 l -0.823071,-1.645871 -1.186767,1.263265 c -0.652712,0.694774 -1.571812,1.263245 -2.042415,1.263245 -0.95495,0 -2.550842,-1.54721 -2.550842,-2.473027 0,-0.329937 -0.23046,-0.599868 -0.51214,-0.599868 -0.2817,0 -0.51217,0.33286 -0.51217,0.739663 0,0.406822 -0.54628,1.37476 -1.21398,2.151007 -1.18773,1.380819 -1.24309,1.392259 -2.56073,0.528906 -0.74073,-0.485353 -1.34679,-1.247199 -1.34679,-1.693025 0,-0.56009 -0.45914,-0.319059 -1.48585,0.780041 -1.58284,1.694457 -2.67263,1.988565 -3.52155,0.95042 z m 29.279728,-3.754972 c 0.492592,-1.283686 0.361624,-4.796 -0.219313,-5.881492 -0.641156,-1.198032 -1.805275,-1.292184 -2.231861,-0.180599 -0.540539,1.408654 -0.336266,5.617562 0.303728,6.257537 0.852068,0.852087 1.777769,0.767788 2.147446,-0.195523 z m 6.951208,2.825844 c -0.31118,-0.58144 -0.530106,-2.25232 -0.486495,-3.713083 0.107237,-3.595471 0.08188,-3.718871 -0.622631,-3.014418 -1.078291,1.078272 -1.500251,0.667423 -1.336899,-1.301727 0.111109,-1.33924 0.428831,-1.967446 1.055199,-2.086142 0.620018,-0.117496 0.896279,0.15737 0.896279,0.892001 0,0.806114 0.325485,1.061837 1.351493,1.061837 1.337904,0 1.348764,0.0302 1.079162,3.003424 -0.465396,5.132461 0.787532,5.527107 2.687288,0.846435 0.630742,-1.554062 1.3549,-2.825554 1.609229,-2.825554 1.022969,0 -1.21737,5.684304 -2.905788,7.372742 -1.135297,1.135277 -2.650606,1.028021 -3.326837,-0.235515 z"
       style="fill:#000000;stroke-width:1.93568"
       id="path3" />
    <g
       id="g24"
       transform="matrix(2.4697893,0,0,2.4697893,257.67415,-91.753173)">
      <g
         id="g5"
         transform="matrix(0.66918671,0.18209716,-0.18209716,0.66918671,-20.184643,9.4320701)"
         style="stroke-width:0.228905;stroke-dasharray:none">
        <path
           style="fill:none;fill-opacity:1;stroke:#000000;stroke-width:0.228905;stroke-dasharray:none;stroke-opacity:1"
           d="m -135.31817,110.38905 1.42205,1.16503 c 0,0 0.51159,0.14497 0.67633,0.005 0.16476,-0.13959 0.18209,-0.1557 0.18209,-0.1557"
           id="path4" />
        <path
           style="fill:#ffffff;fill-opacity:1;stroke:#000000;stroke-width:0.259429;stroke-dasharray:none;stroke-opacity:1"
           d="m -140.13604,106.36138 c 0,0 1.15247,1.35693 0.24165,2.58375 -0.91082,1.22682 -0.91082,1.22682 -0.91082,1.22682"
           id="path5"
           clip-path="url(#clipPath15-7)"
           transform="matrix(0.88071766,0,0,0.88396344,-9.8191967,15.077245)" />
      </g>
      <path
         style="fill:#ffffff;fill-opacity:1;stroke:#000000;stroke-width:0;stroke-dasharray:none;stroke-opacity:1"
         d="m -130.47343,58.064304 0.53694,1.439 -0.0537,0.37586 -0.37585,0.20403 -0.89669,-0.81614 -0.0376,-0.82689 c 0,0 0.82152,0.0537 0.82689,-0.37586 z"
         id="path6" />
      <path
         style="fill:#ffffff;fill-opacity:1;stroke:#000000;stroke-width:0.15875;stroke-dasharray:none;stroke-opacity:1"
         d="m -122.74839,51.756626 c 0,0 -0.43668,0.539428 -1.66965,0.02569 -1.23298,-0.513739 -6.06212,-2.337511 -6.06212,-2.337511 0,0 -2.07613,-0.409644 -3.07886,0.557699 -1.00273,0.967343 -2.60711,2.59531 -2.60711,2.59531 0,0 -0.58984,1.02633 -0.33031,1.93469 0.25953,0.90836 1.42742,4.41203 1.42742,4.41203 0,0 1.71055,-1.45102 1.76953,-2.19422 0.059,-0.7432 -0.17695,-1.98187 -0.22414,-2.265 -0.0472,-0.28312 1.26226,-1.25047 1.26226,-1.25047 l 3.22055,-0.21234 c 0,0 -2.76047,2.18242 -2.89023,2.40656 -0.12977,0.22414 -1.35664,1.8993 -0.94375,2.53633 0.41289,0.63703 2.09984,0.15336 2.09984,0.15336 0,0 2.2768,-1.10891 2.43015,-1.25047 0.15337,-0.14156 1.36844,1.03812 1.36844,1.03812 0,0 2.87844,1.56899 3.83398,0.3893 0.95555,-1.17969 0.95555,-1.17969 0.95555,-1.17969"
         id="path7" />
      <path
         style="fill:none;fill-opacity:1;stroke:#000000;stroke-width:0.15875;stroke-dasharray:none;stroke-opacity:1"
         d="m -133.18623,59.498604 1.42205,1.16503 c 0,0 0.51159,0.14497 0.67633,0.005 0.16476,-0.13959 0.18209,-0.1557 0.18209,-0.1557"
         id="path8" />
      <path
         style="opacity:0.248691;fill:none;fill-opacity:1;stroke:#000000;stroke-width:0.159279;stroke-dasharray:none;stroke-opacity:1"
         d="m -131.41256,56.214994 0.76758,1.03076 c 0,0 -1.09654,0.74565 -1.44744,0.50441 -0.35089,-0.24124 -0.35089,-0.65793 -0.15352,-0.9211 0.19738,-0.26317 0.83338,-0.61407 0.83338,-0.61407 z"
         id="path9" />
      <path
         style="fill:#e1673e;fill-opacity:1;stroke:#000000;stroke-width:0.159279;stroke-dasharray:none;stroke-opacity:1"
         d="m -136.32509,56.960654 1.00883,-0.30704 0.43861,1.22813 c 0,0 -0.87723,0.48249 -1.44744,-0.92109 z"
         id="path10" />
      <g
         id="g12"
         transform="matrix(0.63610491,0.27629834,-0.27629834,0.63610491,-14.782761,26.135013)"
         style="stroke-width:0.228905;stroke-dasharray:none">
        <path
           style="fill:none;fill-opacity:1;stroke:#000000;stroke-width:0.228905;stroke-dasharray:none;stroke-opacity:1"
           d="m -135.31817,110.38905 1.42205,1.16503 c 0,0 0.51159,0.14497 0.67633,0.005 0.16476,-0.13959 0.18209,-0.1557 0.18209,-0.1557"
           id="path11" />
        <path
           style="fill:#ffffff;fill-opacity:1;stroke:#000000;stroke-width:0.259429;stroke-dasharray:none;stroke-opacity:1"
           d="m -140.13604,106.36138 c 0,0 1.15247,1.35693 0.24165,2.58375 -0.91082,1.22682 -0.91082,1.22682 -0.91082,1.22682"
           id="path12"
           clip-path="url(#clipPath15-7)"
           transform="matrix(0.88071766,0,0,0.88396344,-9.8191967,15.077245)" />
      </g>
      <path
         style="fill:#ffffff;fill-opacity:1;stroke:#000000;stroke-width:0.179919;stroke-dasharray:none;stroke-opacity:1"
         d="m -140.13604,106.36138 c 0,0 1.15247,1.35693 0.24165,2.58375 -0.91082,1.22682 -0.91082,1.22682 -0.91082,1.22682"
         id="path13"
         clip-path="url(#clipPath15-7)"
         transform="matrix(0.88071766,0,0,0.88396344,-7.6618768,-35.84279)" />
      <path
         style="fill:#ffffff;fill-opacity:1;stroke:#000000;stroke-width:0;stroke-dasharray:none;stroke-opacity:1"
         d="m -132.6844,58.280794 -0.27885,1.25124 0.48619,0.25739 1.25839,0.82225 0.13585,-2.50963 -1.06534,0.0143 z"
         id="path14" />
      <path
         style="fill:#e1673e;fill-opacity:1;stroke:#000000;stroke-width:0.159279;stroke-dasharray:none;stroke-opacity:1"
         d="m -132.8904,60.266614 0.73304,-0.75807 0.97953,0.86093 c 0,0 -0.53283,0.8476 -1.71257,-0.10286 z"
         id="path15" />
      <rect
         style="fill:#003327;fill-opacity:1;stroke:#000000;stroke-width:0.079375;stroke-dasharray:none;stroke-opacity:1"
         id="rect15"
         width="1.5385875"
         height="17.488417"
         x="-89.531151"
         y="101.58583"
         transform="rotate(28.714788)" />
      <path
         style="fill:#ffffff;fill-opacity:1;stroke:#000000;stroke-width:0.15875;stroke-dasharray:none;stroke-opacity:1"
         d="m -131.82533,99.845102 c 0,0 -0.43668,0.539428 -1.66965,0.02569 -1.23298,-0.513739 -6.06212,-2.337511 -6.06212,-2.337511 0,0 -2.07613,-0.409644 -3.07886,0.557699 -1.00273,0.967343 -2.60711,2.59531 -2.60711,2.59531 0,0 -0.58984,1.02633 -0.33031,1.93469 0.25953,0.90836 1.42742,4.41203 1.42742,4.41203 0,0 1.71055,-1.45102 1.76953,-2.19422 0.059,-0.7432 -0.17695,-1.98187 -0.22414,-2.265 -0.0472,-0.28312 1.26226,-1.25047 1.26226,-1.25047 l 3.22055,-0.21234 c 0,0 -2.76047,2.18242 -2.89023,2.40656 -0.12977,0.22414 -1.35664,1.8993 -0.94375,2.53633 0.41289,0.63703 2.09984,0.15336 2.09984,0.15336 0,0 2.2768,-1.10891 2.43015,-1.25047 0.15337,-0.14156 1.36844,1.03812 1.36844,1.03812 0,0 2.87844,1.56899 3.83398,0.3893 0.95555,-1.17969 0.95555,-1.17969 0.95555,-1.17969"
         id="path16"
         clip-path="url(#clipPath19-6)"
         transform="translate(9.1574742,-48.081906)" />
      <path
         style="fill:#e1673e;fill-opacity:1;stroke:#000000;stroke-width:0.159279;stroke-dasharray:none;stroke-opacity:1"
         d="m -131.33203,56.221574 0.76758,1.03076 c 0,0 -1.09654,0.74565 -1.44744,0.50441 -0.35089,-0.24124 -0.35089,-0.65793 -0.15352,-0.9211 0.19738,-0.26317 0.83338,-0.61407 0.83338,-0.61407 z"
         id="path17" />
      <path
         style="fill:#e1673e;fill-opacity:1;stroke:#000000;stroke-width:0.15875;stroke-dasharray:none;stroke-opacity:1"
         d="m -129.20129,58.206144 c -0.25374,-0.64513 -0.25374,-0.64513 -0.25374,-0.64513"
         id="path18" />
      <path
         style="fill:#e1673e;fill-opacity:1;stroke:#000000;stroke-width:0.15875;stroke-dasharray:none;stroke-opacity:1"
         d="m -129.67283,58.745554 c -0.33864,-0.8825 -0.33864,-0.8825 -0.33864,-0.8825"
         id="path19" />
      <path
         style="fill:#e1673e;fill-opacity:1;stroke:#000000;stroke-width:0.0529167;stroke-dasharray:none;stroke-opacity:1"
         d="m -135.82304,61.704464 1.21314,0.68136 -1.55473,1.10923 z"
         id="path21" />
      <path
         style="fill:#e1673e;fill-opacity:1;stroke:#000000;stroke-width:0.0529167;stroke-dasharray:none;stroke-opacity:1"
         d="m -127.1673,45.832506 c 1.35492,0.754155 1.30379,0.715806 1.30379,0.715806 0,0 0.14061,-1.009801 -0.0639,-1.17597 -0.20451,-0.166168 -0.42181,-0.242863 -1.23988,0.460164 z"
         id="path22" />
      <path
         style="fill:#e1673e;fill-opacity:1;stroke:#000000;stroke-width:0.140758;stroke-dasharray:none;stroke-opacity:1"
         d="m -132.22686,53.213964 c -0.20192,-0.95711 -0.20192,-0.95711 -0.20192,-0.95711"
         id="path23" />
      <path
         style="fill:#e1673e;fill-opacity:1;stroke:#000000;stroke-width:0.172084;stroke-dasharray:none;stroke-opacity:1"
         d="m -133.53105,54.436994 c -0.88928,-0.32146 -0.88928,-0.32146 -0.88928,-0.32146"
         id="path24" />
    </g>
    <text
       xml:space="preserve"
       style="font-size:7.92838px;writing-mode:lr-tb;direction:ltr;fill:#e1673e;fill-opacity:1;stroke:#000000;stroke-width:0;stroke-dasharray:none"
       x="-69.525833"
       y="100.99056"
       id="text25"><tspan
         id="tspan25"
         style="font-style:italic;fill:#e1673e;fill-opacity:1;stroke-width:0;stroke-dasharray:none"
         x="-69.525833"
         y="100.99056">Achieve Your Destiny</tspan></text>
    <g
       id="g26"
       transform="matrix(0.41635868,0,0,0.41635868,-91.438524,100.62122)"
       style="fill:none;fill-rule:nonzero;stroke:none;stroke-width:0;stroke-linecap:butt;stroke-linejoin:miter;stroke-miterlimit:10;stroke-dasharray:none">
      <circle
         cx="43.166218"
         cy="36.22274"
         r="27.677582"
         style="opacity:1;fill:#2ab540;fill-rule:nonzero;stroke:none;stroke-width:0.615057;stroke-linecap:butt;stroke-linejoin:miter;stroke-miterlimit:10;stroke-dasharray:none"
         id="circle25" />
      <path
         d="m 19.064812,38.363539 c -0.0015,3.756702 0.98001,7.42438 2.846589,10.657232 l -3.025374,11.045706 11.304685,-2.96431 c 3.114398,1.698833 6.620948,2.593491 10.190036,2.594962 h 0.0088 c 11.752016,0 21.318879,-9.563915 21.324026,-21.317403 0.0017,-5.696119 -2.214583,-11.052326 -6.239831,-15.081252 -4.025981,-4.028927 -9.37998,-6.249398 -15.084192,-6.251605 -11.754224,0 -21.319614,9.562446 -21.324764,21.31667 m 6.732045,10.100275 -0.422317,-0.670261 c -1.774611,-2.820838 -2.71121,-6.081649 -2.70974,-9.429278 0.0037,-9.769191 7.954114,-17.717418 17.730662,-17.717418 4.734503,0.0021 9.183539,1.84745 12.530431,5.195815 3.346158,3.349101 5.187722,7.801079 5.186986,12.534847 -0.0044,9.769926 -7.954848,17.718892 -17.724039,17.718892 h -0.0066 c -3.180614,-0.0017 -6.300163,-0.855671 -9.020939,-2.469891 l -0.647454,-0.384058 -6.708501,1.759164 z m 14.592719,11.233315 v 0 0 c 0,0 -7.36e-4,0 0,0"
         style="opacity:1;fill:#2ab540;fill-opacity:1;fill-rule:nonzero;stroke:none;stroke-width:0.735743;stroke-linecap:butt;stroke-linejoin:miter;stroke-miterlimit:10;stroke-dasharray:none"
         stroke-linecap="round"
         id="path25" />
      <path
         d="m 36.168842,23.223631 c -0.543,-1.206 -1.113,-1.23 -1.63,-1.251 -0.422,-0.018 -0.905,-0.017 -1.388,-0.017 -0.483,0 -1.268,0.181 -1.931,0.906 -0.664,0.725 -2.535,2.477 -2.535,6.039 0,3.563 2.595,7.006 2.957,7.49 0.362,0.483 5.01,8.028 12.37,10.931 6.118,2.412 7.362,1.933 8.69,1.812 1.328,-0.121 4.285,-1.751 4.888,-3.442 0.604,-1.691 0.604,-3.14 0.423,-3.443 -0.181,-0.302 -0.664,-0.483 -1.388,-0.845 -0.724,-0.362 -4.285,-2.114 -4.948,-2.356 -0.664,-0.241 -1.147,-0.362 -1.63,0.363 -0.483,0.724 -1.87,2.355 -2.292,2.838 -0.422,0.484 -0.845,0.544 -1.569,0.182 -0.724,-0.363 -3.057,-1.127 -5.824,-3.594 -2.153,-1.92 -3.606,-4.29 -4.029,-5.015 -0.422,-0.724 -0.045,-1.116 0.318,-1.477 0.325,-0.324 0.724,-0.846 1.087,-1.268 0.361,-0.423 0.482,-0.725 0.723,-1.208 0.242,-0.483 0.121,-0.906 -0.06,-1.269 -0.181,-0.363 -1.588,-3.944 -2.232,-5.376"
         style="opacity:1;fill:#ffffff;fill-rule:nonzero;stroke:none;stroke-width:1;stroke-linecap:butt;stroke-linejoin:miter;stroke-miterlimit:10;stroke-dasharray:none"
         stroke-linecap="round"
         id="path26" />
    </g>
    <text
       xml:space="preserve"
       style="font-size:12.0819px;writing-mode:lr-tb;direction:ltr;fill:#2ab540;fill-opacity:1;stroke:#6d6d6d;stroke-width:0;stroke-dasharray:none;stroke-opacity:0.388664"
       x="-75.044945"
       y="94.094513"
       id="text27"
       transform="scale(0.778241,1.284949)"><tspan
         id="tspan27"
         style="font-style:italic;font-weight:bold;fill:#2ab540;fill-opacity:1;stroke:#6d6d6d;stroke-width:0;stroke-dasharray:none;stroke-opacity:0.388664"
         x="-75.044945"
         y="94.094513">+2773 0000 822</tspan></text>
  </g>
</svg>
